<svg width="50" height="80" viewBox="0 0 50 80" fill="none" xmlns="http://www.w3.org/2000/svg">
<g clip-path="url(#clip0_1_3)">
<path d="M26.4142 79.3512L49.6682 48.4762C50.0432 47.9841 50.1057 47.32 49.8283 46.7692C49.5549 46.2146 48.9885 45.863 48.3713 45.863L37.4413 45.863L37.4374 1.625C37.4374 0.730469 36.7109 0.00389942 35.8163 -6.19989e-07L14.4103 -1.55568e-06C13.5158 0.00390441 12.7892 0.726558 12.7892 1.625L12.7892 45.863L1.8552 45.863C1.238 45.8669 0.671597 46.2185 0.394297 46.7732C0.128696 47.3279 0.191197 47.9841 0.558397 48.4763L23.8164 79.3513C24.125 79.7614 24.6055 79.9997 25.1172 79.9997C25.6289 79.9997 26.1094 79.7614 26.418 79.3513L26.4142 79.3512Z" fill="black"/>
</g>
<defs>
<clipPath id="clip0_1_3">
<rect width="80" height="50" fill="white" transform="translate(50) rotate(90)"/>
</clipPath>
</defs>
</svg>
